<svg version="1.1" id="Uploaded to svgrepo.com" xmlns="http://www.w3.org/2000/svg" xmlns:xlink="http://www.w3.org/1999/xlink" width="20px" height="20px" viewBox="0 0 0.8 0.8" xml:space="preserve"><style type="text/css">.stone_een{fill:#111918;}
	.st0{fill:#0B1719;}</style><path class="stone_een" d="M0.125 0.175h0.55a0.025 0.025 0 0 0 0.025 -0.025V0.125a0.05 0.05 0 0 0 -0.05 -0.05h-0.175V0.05a0.025 0.025 0 0 0 -0.025 -0.025h-0.1a0.025 0.025 0 0 0 -0.025 0.025v0.025H0.15a0.05 0.05 0 0 0 -0.05 0.05v0.025a0.025 0.025 0 0 0 0.025 0.025zm0.225 -0.125h0.1v0.025h-0.1V0.05zM0.127 0.2l0.044 0.529A0.05 0.05 0 0 0 0.221 0.775h0.358a0.05 0.05 0 0 0 0.05 -0.046L0.673 0.2H0.127zM0.3 0.663a0.013 0.013 0 0 1 -0.025 0v-0.375a0.013 0.013 0 0 1 0.025 0v0.375zm0.075 0a0.013 0.013 0 0 1 -0.025 0v-0.375a0.013 0.013 0 0 1 0.025 0v0.375zm0.075 0a0.013 0.013 0 0 1 -0.025 0v-0.375a0.013 0.013 0 0 1 0.025 0v0.375zm0.075 0a0.013 0.013 0 0 1 -0.025 0v-0.375a0.013 0.013 0 0 1 0.025 0v0.375z"/></svg>